<svg xmlns="http://www.w3.org/2000/svg" width="36" height="36" viewBox="0 0 36 36" fill="none">
<path d="M26.7068 18.6307C26.6699 14.6324 30.0645 12.6872 30.2198 12.5966C28.2972 9.86366 25.3173 9.49026 24.2702 9.46048C21.7675 9.20369 19.3398 10.9206 18.0649 10.9206C16.7645 10.9206 14.8013 9.48529 12.6853 9.52747C9.96244 9.56841 7.41517 11.1055 6.01811 13.4923C3.13493 18.359 5.28523 25.5108 8.04754 29.4446C9.42932 31.3712 11.044 33.5223 13.1574 33.4466C15.2249 33.3635 15.9973 32.1614 18.4924 32.1614C20.9646 32.1614 21.6898 33.4466 23.8452 33.3983C26.0642 33.3635 27.4613 31.463 28.7947 29.519C30.3915 27.3108 31.0328 25.1362 31.0583 25.0245C31.0061 25.0071 26.7488 23.4229 26.7068 18.6307Z" fill="#403F3D"/>
<path d="M22.6352 6.87268C23.7472 5.51675 24.5081 3.67205 24.2969 1.80005C22.6874 1.86952 20.6745 2.88554 19.5154 4.21169C18.4898 5.38029 17.5737 7.29571 17.8104 9.097C19.6184 9.2285 21.4748 8.20752 22.6352 6.87268Z" fill="#403F3D"/>
</svg>