<svg xmlns="http://www.w3.org/2000/svg" width="36" height="36" viewBox="0 0 36 36" fill="none">
<path d="M3.7558 3.20297C3.39335 3.57289 3.18359 4.14884 3.18359 4.89471V31.4994C3.18359 32.2453 3.39335 32.8212 3.7558 33.1911L3.84525 33.2723L19.1359 18.37V18.0181L3.84525 3.11575L3.7558 3.20297Z" fill="#403F3D"/>
<path d="M26.078 23.34L20.9868 18.37V18.0181L26.0842 13.0482L26.1983 13.1128L32.235 16.4617C33.9578 17.4121 33.9578 18.976 32.235 19.9324L26.1983 23.2753L26.078 23.34Z" fill="#403F3D"/>
<path d="M25.2737 24.2007L20.0622 19.1195L4.68213 34.1166C5.25433 34.7031 6.18744 34.7737 7.24856 34.1873L25.2737 24.2007Z" fill="#403F3D"/>
<path d="M25.2737 12.1876L7.24856 2.20103C6.18744 1.62058 5.25433 1.69125 4.68213 2.27772L20.0622 17.2688L25.2737 12.1876Z" fill="#403F3D"/>
</svg>